<?xml version="1.0" encoding="UTF-8" standalone="no"?>
<!DOCTYPE svg PUBLIC "-//W3C//DTD SVG 1.1//EN" "http://www.w3.org/Graphics/SVG/1.1/DTD/svg11.dtd">
<svg width="100%" height="100%" viewBox="0 0 517 96" version="1.1" xmlns="http://www.w3.org/2000/svg" xmlns:xlink="http://www.w3.org/1999/xlink" xml:space="preserve" xmlns:serif="http://www.serif.com/" style="fill-rule:evenodd;clip-rule:evenodd;stroke-linejoin:round;stroke-miterlimit:2;">
    <g transform="matrix(1,0,0,1,-703.507,-492.458)">
        <g transform="matrix(11.5843,0,-2.03501,11.5843,-6251.91,-5189.2)">
            <g transform="matrix(12,0,0,12,687.387,498.551)">
                <path d="M0.051,-0.644L0.212,-0.644L0.212,-0.124L0.516,-0.124L0.516,0L0.051,0L0.051,-0.644Z" style="fill-rule:nonzero;"/>
            </g>
            <g transform="matrix(12,0,0,12,693.651,498.551)">
                <path d="M0.199,0.01C0.15,0.01 0.11,-0.003 0.079,-0.029C0.047,-0.054 0.031,-0.091 0.031,-0.139C0.031,-0.188 0.048,-0.227 0.082,-0.254C0.115,-0.281 0.164,-0.295 0.229,-0.295L0.361,-0.295L0.361,-0.306C0.361,-0.331 0.353,-0.348 0.337,-0.358C0.32,-0.368 0.29,-0.373 0.247,-0.373C0.193,-0.373 0.14,-0.365 0.088,-0.348L0.088,-0.452C0.112,-0.461 0.141,-0.469 0.175,-0.475C0.209,-0.481 0.244,-0.484 0.28,-0.484C0.355,-0.484 0.413,-0.469 0.454,-0.438C0.495,-0.407 0.515,-0.36 0.515,-0.296L0.515,0L0.374,0L0.366,-0.04C0.329,-0.007 0.274,0.01 0.199,0.01ZM0.25,-0.089C0.298,-0.089 0.335,-0.104 0.361,-0.135L0.361,-0.202L0.247,-0.202C0.223,-0.202 0.205,-0.197 0.194,-0.188C0.182,-0.179 0.176,-0.164 0.176,-0.145C0.176,-0.108 0.201,-0.089 0.25,-0.089Z" style="fill-rule:nonzero;"/>
            </g>
            <g transform="matrix(12,0,0,12,699.878,498.551)">
                <path d="M0.051,-0.474L0.201,-0.474L0.206,-0.433C0.227,-0.448 0.252,-0.46 0.282,-0.47C0.311,-0.479 0.342,-0.484 0.373,-0.484C0.434,-0.484 0.478,-0.469 0.507,-0.44C0.535,-0.411 0.549,-0.365 0.549,-0.304L0.549,0L0.388,0L0.388,-0.291C0.388,-0.318 0.382,-0.337 0.371,-0.348C0.359,-0.359 0.339,-0.365 0.31,-0.365C0.293,-0.365 0.275,-0.361 0.257,-0.353C0.239,-0.345 0.224,-0.335 0.212,-0.323L0.212,0L0.051,0L0.051,-0.474Z" style="fill-rule:nonzero;"/>
            </g>
            <g transform="matrix(12,0,0,12,706.576,498.551)">
                <path d="M0.25,0.01C0.177,0.01 0.123,-0.008 0.086,-0.044C0.049,-0.079 0.031,-0.138 0.031,-0.22C0.031,-0.276 0.041,-0.324 0.061,-0.364C0.08,-0.403 0.108,-0.433 0.143,-0.454C0.178,-0.474 0.218,-0.484 0.264,-0.484C0.31,-0.484 0.351,-0.473 0.386,-0.452L0.386,-0.674L0.547,-0.674L0.547,0L0.408,0L0.399,-0.04C0.379,-0.023 0.357,-0.011 0.333,-0.003C0.309,0.006 0.281,0.01 0.25,0.01ZM0.296,-0.107C0.331,-0.107 0.361,-0.119 0.386,-0.143L0.386,-0.335C0.363,-0.356 0.334,-0.366 0.299,-0.366C0.265,-0.366 0.239,-0.353 0.222,-0.328C0.204,-0.302 0.195,-0.266 0.195,-0.219C0.195,-0.176 0.203,-0.146 0.219,-0.131C0.235,-0.115 0.261,-0.107 0.296,-0.107Z" style="fill-rule:nonzero;"/>
            </g>
            <g transform="matrix(12,0,0,12,713.25,498.551)">
                <path d="M0.199,0.01C0.15,0.01 0.11,-0.003 0.079,-0.029C0.047,-0.054 0.031,-0.091 0.031,-0.139C0.031,-0.188 0.048,-0.227 0.082,-0.254C0.115,-0.281 0.164,-0.295 0.229,-0.295L0.361,-0.295L0.361,-0.306C0.361,-0.331 0.353,-0.348 0.337,-0.358C0.32,-0.368 0.29,-0.373 0.247,-0.373C0.193,-0.373 0.14,-0.365 0.088,-0.348L0.088,-0.452C0.112,-0.461 0.141,-0.469 0.175,-0.475C0.209,-0.481 0.244,-0.484 0.28,-0.484C0.355,-0.484 0.413,-0.469 0.454,-0.438C0.495,-0.407 0.515,-0.36 0.515,-0.296L0.515,0L0.374,0L0.366,-0.04C0.329,-0.007 0.274,0.01 0.199,0.01ZM0.25,-0.089C0.298,-0.089 0.335,-0.104 0.361,-0.135L0.361,-0.202L0.247,-0.202C0.223,-0.202 0.205,-0.197 0.194,-0.188C0.182,-0.179 0.176,-0.164 0.176,-0.145C0.176,-0.108 0.201,-0.089 0.25,-0.089Z" style="fill-rule:nonzero;"/>
            </g>
            <g transform="matrix(12,0,0,12,725.756,498.551)">
                <path d="M0.305,0.01C0.22,0.01 0.154,-0.011 0.105,-0.053C0.055,-0.095 0.031,-0.156 0.031,-0.237C0.031,-0.314 0.052,-0.375 0.095,-0.419C0.137,-0.462 0.198,-0.484 0.279,-0.484C0.353,-0.484 0.411,-0.465 0.453,-0.426C0.495,-0.387 0.516,-0.335 0.516,-0.27L0.516,-0.185L0.18,-0.185C0.187,-0.154 0.204,-0.133 0.23,-0.12C0.256,-0.107 0.293,-0.101 0.342,-0.101C0.368,-0.101 0.395,-0.103 0.422,-0.108C0.448,-0.113 0.471,-0.119 0.489,-0.126L0.489,-0.021C0.444,0 0.382,0.01 0.305,0.01ZM0.376,-0.278L0.376,-0.299C0.376,-0.35 0.345,-0.375 0.284,-0.375C0.246,-0.375 0.219,-0.367 0.204,-0.352C0.188,-0.337 0.18,-0.312 0.18,-0.278L0.376,-0.278Z" style="fill-rule:nonzero;"/>
            </g>
            <g transform="matrix(12,0,0,12,719.556,498.551)">
                <path d="M0.213,-0.241L0.038,-0.474L0.301,-0.355L0.389,-0.474L0.564,-0.474L0.389,-0.241L0.571,0L0.395,0L0.301,-0.125L0.207,0L0.031,0L0.213,-0.241Z" style="fill-rule:nonzero;"/>
            </g>
        </g>
    </g>
</svg>
